# MagicaVoxel @ Ephtracy

# group
o 

# material
mtllib dino_bg.mtl
usemtl palette

# normals
vn -1 0 0
vn 1 0 0
vn 0 0 1
vn 0 0 -1
vn 0 -1 0
vn 0 1 0

# texcoords
vt 0.974609 0.5
vt 0.978516 0.5
vt 0.982422 0.5

# verts
v -2 0 2
v -2 0 -2
v -2 2 2
v -2 2 -2
v -1.4 1.7 -0.2
v -1.4 1.7 -0.3
v -1.4 1.8 -0.2
v -1.4 1.8 -0.3
v -1.2 1.5 -1.5
v -1.2 1.5 -1.6
v -1.2 1.6 -1.5
v -1.2 1.6 -1.6
v -1.2 1.6 -1.7
v -1.2 1.7 -1.6
v -1.2 1.7 -1.7
v 0.1 1.7 2
v 0.1 1.7 -0.4
v 0.1 1.7 -0.5
v 0.1 1.7 -2
v 0.1 1.8 2
v 0.1 1.8 -0.4
v 0.1 1.8 -0.5
v 0.1 1.8 -2
v 0.2 1.6 -0.9
v 0.2 1.6 -1
v 0.2 1.7 -0.9
v 0.2 1.7 -1
v 0.3 1.8 2
v 0.3 1.8 1.4
v 0.3 1.8 1.3
v 0.3 1.8 0.5
v 0.3 1.8 0.4
v 0.3 1.8 -1
v 0.3 1.8 -1.1
v 0.3 1.8 -2
v 0.3 1.9 2
v 0.3 1.9 1.4
v 0.3 1.9 1.3
v 0.3 1.9 0.5
v 0.3 1.9 0.4
v 0.3 1.9 -2
v 0.4 1.4 -0.9
v 0.4 1.4 -1
v 0.4 1.6 -0.9
v 0.4 1.6 -1
v 0.4 1.7 -0.7
v 0.4 1.7 -0.8
v 0.4 1.7 -0.9
v 0.4 1.8 -0.7
v 0.4 1.8 -0.9
v 0.4 1.9 2
v 0.4 1.9 1.4
v 0.4 1.9 1.3
v 0.4 1.9 0.5
v 0.4 1.9 0.4
v 0.4 1.9 -2
v 0.4 2 2
v 0.4 2 1.4
v 0.4 2 1.3
v 0.4 2 -2
v 0.6 1.8 -0.8
v 0.6 1.8 -0.9
v 0.6 1.8 -1
v 0.6 1.9 -0.8
v 0.6 1.9 -1
v 0.7 1.6 -0.7
v 0.7 1.6 -0.9
v 0.7 1.7 -0.5
v 0.7 1.7 -0.7
v 0.7 1.8 -0.8
v 0.7 1.8 -0.9
v 0.7 1.9 -0.5
v 0.7 1.9 -0.7
v 0.7 1.9 -0.8
v -1.6 1.9 2
v -1.6 1.9 1.6
v -1.6 1.9 1.5
v -1.6 1.9 -0.9
v -1.6 1.9 -1
v -1.6 1.9 -2
v -1.6 2 2
v -1.6 2 -0.9
v -1.6 2 -1
v -1.6 2 -2
v -1.5 1.7 -0.2
v -1.5 1.7 -0.3
v -1.5 1.8 -0.2
v -1.5 1.8 -0.3
v -1.4 1.6 -1.6
v -1.4 1.6 -1.7
v -1.4 1.7 -1.6
v -1.4 1.7 -1.7
v -1.4 1.8 2
v -1.4 1.8 0.9
v -1.4 1.8 0.8
v -1.4 1.8 -0.1
v -1.4 1.8 -0.2
v -1.4 1.8 -0.3
v -1.4 1.8 -2
v -1.4 1.9 2
v -1.4 1.9 -0.2
v -1.4 1.9 -0.3
v -1.4 1.9 -2
v -1.3 1.5 -1.5
v -1.3 1.5 -1.6
v -1.3 1.6 -1.5
v -1.3 1.6 -1.6
v -1.2 1.7 2
v -1.2 1.7 -1.6
v -1.2 1.7 -1.7
v -1.2 1.7 -2
v -1.2 1.8 2
v -1.2 1.8 -2
v 0.1 1.6 -0.8
v 0.1 1.6 -1
v 0.1 1.7 -0.8
v 0.1 1.7 -1
v 0.3 1.4 -0.9
v 0.3 1.4 -1
v 0.3 1.6 -0.9
v 0.3 1.6 -1
v 0.3 1.7 -0.5
v 0.3 1.7 -0.6
v 0.3 1.7 -0.7
v 0.3 1.7 -0.8
v 0.3 1.7 -0.9
v 0.3 1.8 -0.5
v 0.3 1.8 -0.6
v 0.3 1.8 -0.7
v 0.3 1.8 -0.9
v 0.4 1.8 -0.5
v 0.4 1.8 -0.6
v 0.4 1.8 -0.9
v 0.4 1.9 -0.5
v 0.4 1.9 -0.9
v 0.5 1.6 -0.7
v 0.5 1.6 -0.8
v 0.5 1.7 -0.8
v 0.5 1.7 -0.9
v 0.5 1.8 -0.7
v 0.5 1.8 -0.9
v 0.5 1.8 -1
v 0.5 1.9 -0.9
v 0.5 1.9 -1
v 0.6 1.7 -0.6
v 0.6 1.7 -0.7
v 0.6 1.8 -0.6
v 0.6 1.8 -0.7
v 0.9 0 2
v 0.9 0 -2
v 0.9 2 2
v 0.9 2 -2
v -2 0 2
v -2 2 2
v -1.6 1.9 2
v -1.6 2 2
v -1.4 1.8 2
v -1.4 1.9 2
v -1.2 1.7 2
v -1.2 1.8 2
v 0.1 1.7 2
v 0.1 1.8 2
v 0.3 1.8 2
v 0.3 1.9 2
v 0.4 1.9 2
v 0.4 2 2
v 0.9 0 2
v 0.9 2 2
v -1.5 1.7 -0.3
v -1.5 1.8 -0.3
v -1.4 1.7 -0.3
v -1.4 1.8 -0.3
v 0.3 1.7 -0.6
v 0.3 1.8 -0.6
v 0.4 1.8 -0.6
v 0.6 1.7 -0.6
v 0.6 1.8 -0.6
v 0.6 1.8 -0.8
v 0.6 1.9 -0.8
v 0.7 1.8 -0.8
v 0.7 1.9 -0.8
v 0.2 1.6 -0.9
v 0.2 1.7 -0.9
v 0.3 1.7 -0.9
v 0.3 1.8 -0.9
v 0.4 1.7 -0.9
v 0.4 1.8 -0.9
v 0.4 1.9 -0.9
v 0.5 1.7 -0.9
v 0.5 1.8 -0.9
v 0.5 1.9 -0.9
v 0.6 1.8 -0.9
v 0.7 1.6 -0.9
v 0.7 1.8 -0.9
v 0.1 1.6 -1
v 0.1 1.7 -1
v 0.2 1.6 -1
v 0.2 1.7 -1
v 0.3 1.4 -1
v 0.3 1.6 -1
v 0.4 1.4 -1
v 0.4 1.6 -1
v 0.5 1.8 -1
v 0.5 1.9 -1
v 0.6 1.8 -1
v 0.6 1.9 -1
v -1.3 1.5 -1.6
v -1.3 1.6 -1.6
v -1.2 1.5 -1.6
v -1.2 1.6 -1.6
v -1.4 1.6 -1.7
v -1.4 1.7 -1.7
v -1.2 1.6 -1.7
v -1.2 1.7 -1.7
v -1.5 1.7 -0.2
v -1.5 1.8 -0.2
v -1.4 1.7 -0.2
v -1.4 1.8 -0.2
v 0.3 1.7 -0.5
v 0.3 1.8 -0.5
v 0.4 1.8 -0.5
v 0.4 1.9 -0.5
v 0.7 1.7 -0.5
v 0.7 1.9 -0.5
v 0.3 1.7 -0.7
v 0.3 1.8 -0.7
v 0.4 1.7 -0.7
v 0.4 1.8 -0.7
v 0.5 1.6 -0.7
v 0.5 1.8 -0.7
v 0.6 1.7 -0.7
v 0.6 1.8 -0.7
v 0.7 1.6 -0.7
v 0.7 1.7 -0.7
v 0.1 1.6 -0.8
v 0.1 1.7 -0.8
v 0.3 1.7 -0.8
v 0.4 1.7 -0.8
v 0.5 1.6 -0.8
v 0.5 1.7 -0.8
v 0.3 1.4 -0.9
v 0.3 1.6 -0.9
v 0.4 1.4 -0.9
v 0.4 1.6 -0.9
v -1.3 1.5 -1.5
v -1.3 1.6 -1.5
v -1.2 1.5 -1.5
v -1.2 1.6 -1.5
v -1.4 1.6 -1.6
v -1.4 1.7 -1.6
v -1.2 1.6 -1.6
v -1.2 1.7 -1.6
v -2 0 -2
v -2 2 -2
v -1.6 1.9 -2
v -1.6 2 -2
v -1.4 1.8 -2
v -1.4 1.9 -2
v -1.2 1.7 -2
v -1.2 1.8 -2
v 0.1 1.7 -2
v 0.1 1.8 -2
v 0.3 1.8 -2
v 0.3 1.9 -2
v 0.4 1.9 -2
v 0.4 2 -2
v 0.9 0 -2
v 0.9 2 -2
v -2 0 2
v 0.9 0 2
v -2 0 -2
v 0.9 0 -2
v 0.3 1.6 -0.9
v 0.4 1.6 -0.9
v 0.3 1.6 -1
v 0.4 1.6 -1
v -1.3 1.6 -1.5
v -1.2 1.6 -1.5
v -1.3 1.6 -1.6
v -1.2 1.6 -1.6
v 0.1 1.7 -0.8
v 0.3 1.7 -0.8
v 0.4 1.7 -0.8
v 0.5 1.7 -0.8
v 0.2 1.7 -0.9
v 0.3 1.7 -0.9
v 0.4 1.7 -0.9
v 0.5 1.7 -0.9
v 0.1 1.7 -1
v 0.2 1.7 -1
v -1.4 1.7 -1.6
v -1.2 1.7 -1.6
v -1.4 1.7 -1.7
v -1.2 1.7 -1.7
v -1.5 1.8 -0.2
v -1.4 1.8 -0.2
v -1.5 1.8 -0.3
v -1.4 1.8 -0.3
v 0.3 1.8 -0.5
v 0.4 1.8 -0.5
v 0.3 1.8 -0.6
v 0.4 1.8 -0.6
v 0.3 1.8 -0.7
v 0.4 1.8 -0.7
v 0.6 1.8 -0.8
v 0.7 1.8 -0.8
v 0.3 1.8 -0.9
v 0.4 1.8 -0.9
v 0.6 1.8 -0.9
v 0.7 1.8 -0.9
v 0.4 1.9 -0.5
v 0.7 1.9 -0.5
v 0.6 1.9 -0.7
v 0.7 1.9 -0.7
v 0.6 1.9 -0.8
v 0.7 1.9 -0.8
v 0.4 1.9 -0.9
v 0.5 1.9 -0.9
v 0.5 1.9 -1
v 0.6 1.9 -1
v 0.3 1.4 -0.9
v 0.4 1.4 -0.9
v 0.3 1.4 -1
v 0.4 1.4 -1
v -1.3 1.5 -1.5
v -1.2 1.5 -1.5
v -1.3 1.5 -1.6
v -1.2 1.5 -1.6
v 0.5 1.6 -0.7
v 0.7 1.6 -0.7
v 0.1 1.6 -0.8
v 0.5 1.6 -0.8
v 0.2 1.6 -0.9
v 0.7 1.6 -0.9
v 0.1 1.6 -1
v 0.2 1.6 -1
v -1.4 1.6 -1.6
v -1.2 1.6 -1.6
v -1.4 1.6 -1.7
v -1.2 1.6 -1.7
v -1.2 1.7 2
v 0.1 1.7 2
v -0.2 1.7 1.9
v -0.0999999 1.7 1.9
v -0.2 1.7 1.8
v -0.0999999 1.7 1.8
v -1 1.7 1.7
v -0.8 1.7 1.7
v -1 1.7 1.5
v -0.8 1.7 1.5
v -0.4 1.7 1.5
v -0.3 1.7 1.5
v -0.4 1.7 1.4
v -0.3 1.7 1.4
v -0.4 1.7 1.2
v -0.2 1.7 1.2
v -0.4 1.7 1
v -0.2 1.7 1
v -0.3 1.7 0.6
v -0.2 1.7 0.6
v -0.9 1.7 0.5
v -0.8 1.7 0.5
v -0.9 1.7 0.2
v -0.8 1.7 0.2
v -0.3 1.7 0.2
v -0.2 1.7 0.2
v -1.5 1.7 -0.2
v -1.4 1.7 -0.2
v -1.5 1.7 -0.3
v -1.4 1.7 -0.3
v -0.4 1.7 -0.3
v -0.3 1.7 -0.3
v -0.4 1.7 -0.4
v -0.3 1.7 -0.4
v 0.1 1.7 -0.4
v 0.1 1.7 -0.5
v 0.3 1.7 -0.5
v 0.7 1.7 -0.5
v 0.3 1.7 -0.6
v 0.6 1.7 -0.6
v -1 1.7 -0.7
v -0.9 1.7 -0.7
v 0.3 1.7 -0.7
v 0.4 1.7 -0.7
v 0.6 1.7 -0.7
v 0.7 1.7 -0.7
v -0.6 1.7 -0.8
v -0.5 1.7 -0.8
v 0.3 1.7 -0.8
v 0.4 1.7 -0.8
v -1 1.7 -0.9
v -0.9 1.7 -0.9
v -0.6 1.7 -0.9
v -0.5 1.7 -0.9
v -0.6 1.7 -1.2
v -0.5 1.7 -1.2
v -0.6 1.7 -1.3
v -0.5 1.7 -1.3
v -0.3 1.7 -1.4
v -0.2 1.7 -1.4
v -0.8 1.7 -1.5
v -0.7 1.7 -1.5
v -1.2 1.7 -1.6
v -1.1 1.7 -1.6
v -1.2 1.7 -1.7
v -1.1 1.7 -1.7
v -0.8 1.7 -1.7
v -0.7 1.7 -1.7
v -0.3 1.7 -1.7
v -0.2 1.7 -1.7
v -1.2 1.7 -2
v 0.1 1.7 -2
v -1.4 1.8 2
v -1.2 1.8 2
v 0.1 1.8 2
v 0.3 1.8 2
v 0.2 1.8 1.4
v 0.3 1.8 1.4
v 0.2 1.8 1.3
v 0.3 1.8 1.3
v -1.4 1.8 0.9
v -1.3 1.8 0.9
v -1.4 1.8 0.8
v -1.3 1.8 0.8
v 0.3 1.8 0.5
v 0.3 1.8 0.4
v -1.4 1.8 -0.1
v -1.3 1.8 -0.1
v -1.4 1.8 -0.2
v -1.3 1.8 -0.2
v -1.4 1.8 -0.3
v 0.1 1.8 -0.4
v 0.2 1.8 -0.4
v 0.1 1.8 -0.5
v 0.2 1.8 -0.5
v 0.4 1.8 -0.6
v 0.6 1.8 -0.6
v 0.5 1.8 -0.7
v 0.6 1.8 -0.7
v 0.4 1.8 -0.9
v 0.5 1.8 -0.9
v 0.6 1.8 -0.9
v 0.2 1.8 -1
v 0.3 1.8 -1
v 0.5 1.8 -1
v 0.6 1.8 -1
v 0.2 1.8 -1.1
v 0.3 1.8 -1.1
v -1.4 1.8 -2
v -1.2 1.8 -2
v 0.1 1.8 -2
v 0.3 1.8 -2
v -1.6 1.9 2
v -1.4 1.9 2
v 0.3 1.9 2
v 0.4 1.9 2
v -1.6 1.9 1.6
v -1.5 1.9 1.6
v -1.6 1.9 1.5
v -1.5 1.9 1.5
v 0.3 1.9 1.4
v 0.4 1.9 1.4
v 0.3 1.9 1.3
v 0.4 1.9 1.3
v 0.3 1.9 0.5
v 0.4 1.9 0.5
v 0.3 1.9 0.4
v 0.4 1.9 0.4
v -1.5 1.9 -0.2
v -1.4 1.9 -0.2
v -1.5 1.9 -0.3
v -1.4 1.9 -0.3
v -1.6 1.9 -0.9
v -1.6 1.9 -1
v -1.6 1.9 -2
v -1.4 1.9 -2
v 0.3 1.9 -2
v 0.4 1.9 -2
v -2 2 2
v -1.6 2 2
v 0.4 2 2
v 0.9 2 2
v -1.8 2 1.7
v -1.7 2 1.7
v -1.8 2 1.6
v -1.7 2 1.6
v 0.4 2 1.4
v 0.5 2 1.4
v 0.4 2 1.3
v 0.5 2 1.3
v -1.9 2 1.1
v -1.8 2 1.1
v 0.5 2 1.1
v 0.6 2 1.1
v -1.9 2 1
v -1.8 2 1
v 0.5 2 1
v 0.6 2 1
v -1.8 2 0.2
v -1.7 2 0.2
v -1.8 2 0.0999999
v -1.7 2 0.0999999
v -1.8 2 -0.4
v -1.7 2 -0.4
v -1.8 2 -0.6
v -1.7 2 -0.6
v 0.6 2 -0.7
v 0.7 2 -0.7
v -1.7 2 -0.9
v -1.6 2 -0.9
v -1.7 2 -1
v -1.6 2 -1
v 0.6 2 -1
v 0.7 2 -1
v 0.6 2 -1.3
v 0.7 2 -1.3
v 0.6 2 -1.4
v 0.7 2 -1.4
v -2 2 -2
v -1.6 2 -2
v 0.4 2 -2
v 0.9 2 -2

# faces
f 3/3/1 2/3/1 1/3/1
f 4/3/1 2/3/1 3/3/1
f 7/3/1 6/3/1 5/3/1
f 8/3/1 6/3/1 7/3/1
f 11/3/1 10/3/1 9/3/1
f 12/3/1 10/3/1 11/3/1
f 14/1/1 13/1/1 12/1/1
f 15/1/1 13/1/1 14/1/1
f 20/3/1 17/3/1 16/3/1
f 21/1/1 18/1/1 17/1/1
f 21/3/1 17/3/1 20/3/1
f 22/3/1 19/3/1 18/3/1
f 22/1/1 18/1/1 21/1/1
f 23/3/1 19/3/1 22/3/1
f 26/3/1 25/3/1 24/3/1
f 27/3/1 25/3/1 26/3/1
f 36/3/1 29/3/1 28/3/1
f 37/1/1 30/1/1 29/1/1
f 37/3/1 29/3/1 36/3/1
f 38/3/1 31/3/1 30/3/1
f 38/1/1 30/1/1 37/1/1
f 39/1/1 32/1/1 31/1/1
f 39/3/1 31/3/1 38/3/1
f 40/3/1 35/3/1 34/3/1
f 40/1/1 32/1/1 39/1/1
f 40/3/1 33/3/1 32/3/1
f 40/3/1 34/3/1 33/3/1
f 41/3/1 35/3/1 40/3/1
f 44/3/1 43/3/1 42/3/1
f 45/3/1 43/3/1 44/3/1
f 49/3/1 47/3/1 46/3/1
f 49/3/1 48/3/1 47/3/1
f 50/3/1 48/3/1 49/3/1
f 57/3/1 52/3/1 51/3/1
f 58/1/1 53/1/1 52/1/1
f 58/3/1 52/3/1 57/3/1
f 59/3/1 55/3/1 54/3/1
f 59/1/1 53/1/1 58/1/1
f 59/3/1 54/3/1 53/3/1
f 59/3/1 56/3/1 55/3/1
f 60/3/1 56/3/1 59/3/1
f 64/3/1 62/3/1 61/3/1
f 64/3/1 63/3/1 62/3/1
f 65/3/1 63/3/1 64/3/1
f 69/3/1 67/3/1 66/3/1
f 70/3/1 67/3/1 69/3/1
f 70/3/1 69/3/1 68/3/1
f 71/3/1 67/3/1 70/3/1
f 72/3/1 70/3/1 68/3/1
f 73/3/1 70/3/1 72/3/1
f 74/3/1 70/3/1 73/3/1
f 75/3/2 76/3/2 81/3/2
f 76/3/2 77/3/2 81/3/2
f 77/3/2 78/3/2 81/3/2
f 78/1/2 79/1/2 82/1/2
f 81/3/2 78/3/2 82/3/2
f 79/3/2 80/3/2 83/3/2
f 82/1/2 79/1/2 83/1/2
f 83/3/2 80/3/2 84/3/2
f 85/3/2 86/3/2 87/3/2
f 87/3/2 86/3/2 88/3/2
f 89/3/2 90/3/2 91/3/2
f 91/3/2 90/3/2 92/3/2
f 93/3/2 94/3/2 100/3/2
f 94/3/2 95/3/2 100/3/2
f 96/3/2 97/3/2 100/3/2
f 95/3/2 96/3/2 100/3/2
f 97/1/2 98/1/2 101/1/2
f 100/3/2 97/3/2 101/3/2
f 98/3/2 99/3/2 102/3/2
f 101/1/2 98/1/2 102/1/2
f 102/3/2 99/3/2 103/3/2
f 104/3/2 105/3/2 106/3/2
f 106/3/2 105/3/2 107/3/2
f 108/3/2 109/3/2 112/3/2
f 110/3/2 111/3/2 112/3/2
f 109/3/2 110/3/2 112/3/2
f 112/3/2 111/3/2 113/3/2
f 114/3/2 115/3/2 116/3/2
f 116/3/2 115/3/2 117/3/2
f 118/3/2 119/3/2 120/3/2
f 120/3/2 119/3/2 121/3/2
f 122/3/2 123/3/2 127/3/2
f 127/3/2 123/3/2 128/3/2
f 125/3/2 126/3/2 129/3/2
f 124/3/2 125/3/2 129/3/2
f 129/3/2 126/3/2 130/3/2
f 131/3/2 132/3/2 134/3/2
f 132/3/2 133/3/2 134/3/2
f 134/3/2 133/3/2 135/3/2
f 136/3/2 137/3/2 138/3/2
f 136/3/2 138/3/2 140/3/2
f 138/3/2 139/3/2 140/3/2
f 140/3/2 139/3/2 141/3/2
f 141/3/2 142/3/2 143/3/2
f 143/3/2 142/3/2 144/3/2
f 145/3/2 146/3/2 147/3/2
f 147/3/2 146/3/2 148/3/2
f 149/3/2 150/3/2 151/3/2
f 151/3/2 150/3/2 152/3/2
f 155/3/3 154/3/3 153/3/3
f 156/3/3 154/3/3 155/3/3
f 157/3/3 155/3/3 153/3/3
f 158/3/3 155/3/3 157/3/3
f 159/3/3 157/3/3 153/3/3
f 160/3/3 157/3/3 159/3/3
f 161/3/3 159/3/3 153/3/3
f 163/3/3 162/3/3 161/3/3
f 165/3/3 164/3/3 163/3/3
f 167/3/3 165/3/3 163/3/3
f 167/3/3 166/3/3 165/3/3
f 167/3/3 161/3/3 153/3/3
f 167/3/3 163/3/3 161/3/3
f 168/3/3 166/3/3 167/3/3
f 171/3/3 170/3/3 169/3/3
f 172/3/3 170/3/3 171/3/3
f 175/3/3 174/3/3 173/3/3
f 176/3/3 175/3/3 173/3/3
f 177/3/3 175/3/3 176/3/3
f 180/3/3 179/3/3 178/3/3
f 181/3/3 179/3/3 180/3/3
f 184/3/3 183/3/3 182/3/3
f 186/3/3 184/3/3 182/3/3
f 186/3/3 185/3/3 184/3/3
f 187/3/3 185/3/3 186/3/3
f 189/3/3 186/3/3 182/3/3
f 190/3/3 188/3/3 187/3/3
f 191/3/3 188/3/3 190/3/3
f 192/3/3 190/3/3 189/3/3
f 193/3/3 189/3/3 182/3/3
f 193/3/3 192/3/3 189/3/3
f 194/3/3 192/3/3 193/3/3
f 197/3/3 196/3/3 195/3/3
f 198/3/3 196/3/3 197/3/3
f 201/3/3 200/3/3 199/3/3
f 202/3/3 200/3/3 201/3/3
f 205/3/3 204/3/3 203/3/3
f 206/3/3 204/3/3 205/3/3
f 209/3/3 208/3/3 207/3/3
f 210/3/3 208/3/3 209/3/3
f 213/3/3 212/3/3 211/3/3
f 214/3/3 212/3/3 213/3/3
f 215/1/4 216/1/4 217/1/4
f 217/1/4 216/1/4 218/1/4
f 219/3/4 220/3/4 221/3/4
f 219/3/4 221/3/4 223/3/4
f 221/3/4 222/3/4 223/3/4
f 223/3/4 222/3/4 224/3/4
f 225/3/4 226/3/4 227/3/4
f 227/3/4 226/3/4 228/3/4
f 229/3/4 230/3/4 231/3/4
f 231/3/4 230/3/4 232/3/4
f 229/3/4 231/3/4 233/3/4
f 233/3/4 231/3/4 234/3/4
f 235/3/4 236/3/4 237/3/4
f 235/3/4 237/3/4 238/3/4
f 235/3/4 238/3/4 239/3/4
f 239/3/4 238/3/4 240/3/4
f 241/3/4 242/3/4 243/3/4
f 243/3/4 242/3/4 244/3/4
f 245/3/4 246/3/4 247/3/4
f 247/3/4 246/3/4 248/3/4
f 249/3/4 250/3/4 251/3/4
f 251/3/4 250/3/4 252/3/4
f 253/3/4 254/3/4 255/3/4
f 255/3/4 254/3/4 256/3/4
f 253/3/4 255/3/4 257/3/4
f 257/3/4 255/3/4 258/3/4
f 253/3/4 257/3/4 259/3/4
f 259/3/4 257/3/4 260/3/4
f 253/3/4 259/3/4 261/3/4
f 261/3/4 262/3/4 263/3/4
f 263/3/4 264/3/4 265/3/4
f 263/3/4 265/3/4 267/3/4
f 265/3/4 266/3/4 267/3/4
f 253/3/4 261/3/4 267/3/4
f 261/3/4 263/3/4 267/3/4
f 267/3/4 266/3/4 268/3/4
f 271/3/5 270/3/5 269/3/5
f 272/3/5 270/3/5 271/3/5
f 275/3/5 274/3/5 273/3/5
f 276/3/5 274/3/5 275/3/5
f 279/3/5 278/3/5 277/3/5
f 280/3/5 278/3/5 279/3/5
f 285/3/5 282/3/5 281/3/5
f 286/3/5 282/3/5 285/3/5
f 287/3/5 284/3/5 283/3/5
f 288/3/5 284/3/5 287/3/5
f 289/3/5 285/3/5 281/3/5
f 290/3/5 285/3/5 289/3/5
f 293/3/5 292/3/5 291/3/5
f 294/3/5 292/3/5 293/3/5
f 297/1/5 296/1/5 295/1/5
f 298/1/5 296/1/5 297/1/5
f 301/3/5 300/3/5 299/3/5
f 302/3/5 300/3/5 301/3/5
f 307/3/5 304/3/5 303/3/5
f 308/3/5 304/3/5 307/3/5
f 309/3/5 306/3/5 305/3/5
f 310/3/5 306/3/5 309/3/5
f 313/3/5 312/3/5 311/3/5
f 314/3/5 312/3/5 313/3/5
f 315/3/5 313/3/5 311/3/5
f 315/1/5 314/1/5 313/1/5
f 316/1/5 314/1/5 315/1/5
f 317/3/5 315/3/5 311/3/5
f 318/3/5 315/3/5 317/3/5
f 319/3/5 315/3/5 318/3/5
f 320/3/5 315/3/5 319/3/5
f 321/3/6 322/3/6 323/3/6
f 323/3/6 322/3/6 324/3/6
f 325/3/6 326/3/6 327/3/6
f 327/3/6 326/3/6 328/3/6
f 329/3/6 330/3/6 332/3/6
f 331/3/6 332/3/6 333/3/6
f 332/3/6 330/3/6 334/3/6
f 333/3/6 332/3/6 334/3/6
f 331/3/6 333/3/6 335/3/6
f 335/3/6 333/3/6 336/3/6
f 337/3/6 338/3/6 339/3/6
f 339/3/6 338/3/6 340/3/6
f 341/3/6 342/3/6 343/3/6
f 343/3/6 342/3/6 344/3/6
f 341/3/6 343/3/6 345/3/6
f 343/1/6 344/1/6 345/1/6
f 344/3/6 342/3/6 346/3/6
f 345/1/6 344/1/6 346/1/6
f 341/3/6 345/3/6 347/3/6
f 345/3/6 346/3/6 347/3/6
f 347/3/6 346/3/6 348/3/6
f 341/3/6 347/3/6 349/3/6
f 347/2/6 348/2/6 349/2/6
f 348/3/6 346/3/6 350/3/6
f 349/2/6 348/2/6 350/2/6
f 350/3/6 346/3/6 351/3/6
f 351/3/6 346/3/6 352/3/6
f 349/3/6 350/3/6 353/3/6
f 350/3/6 351/3/6 353/3/6
f 351/1/6 352/1/6 353/1/6
f 352/3/6 346/3/6 354/3/6
f 353/1/6 352/1/6 354/1/6
f 349/3/6 353/3/6 355/3/6
f 353/3/6 354/3/6 355/3/6
f 354/3/6 346/3/6 356/3/6
f 355/3/6 354/3/6 356/3/6
f 349/3/6 355/3/6 357/3/6
f 355/2/6 356/2/6 357/2/6
f 356/3/6 346/3/6 358/3/6
f 357/2/6 356/2/6 358/2/6
f 357/3/6 358/3/6 359/3/6
f 358/3/6 346/3/6 360/3/6
f 359/3/6 358/3/6 360/3/6
f 349/3/6 357/3/6 361/3/6
f 357/3/6 359/3/6 361/3/6
f 361/3/6 359/3/6 362/3/6
f 349/3/6 361/3/6 363/3/6
f 361/2/6 362/2/6 363/2/6
f 362/3/6 359/3/6 364/3/6
f 363/2/6 362/2/6 364/2/6
f 359/1/6 360/1/6 365/1/6
f 364/3/6 359/3/6 365/3/6
f 360/3/6 346/3/6 366/3/6
f 365/1/6 360/1/6 366/1/6
f 367/3/6 368/3/6 369/3/6
f 369/3/6 368/3/6 370/3/6
f 364/3/6 365/3/6 371/3/6
f 363/3/6 364/3/6 371/3/6
f 365/3/6 366/3/6 371/3/6
f 371/3/6 366/3/6 372/3/6
f 363/3/6 371/3/6 373/3/6
f 371/2/6 372/2/6 373/2/6
f 372/3/6 366/3/6 374/3/6
f 373/2/6 372/2/6 374/2/6
f 346/3/6 342/3/6 375/3/6
f 374/3/6 366/3/6 375/3/6
f 366/3/6 346/3/6 375/3/6
f 373/3/6 374/3/6 376/3/6
f 374/3/6 375/3/6 376/3/6
f 377/3/6 378/3/6 379/3/6
f 379/3/6 378/3/6 380/3/6
f 373/3/6 376/3/6 381/3/6
f 341/3/6 349/3/6 381/3/6
f 363/3/6 373/3/6 381/3/6
f 349/3/6 363/3/6 381/3/6
f 381/3/6 376/3/6 382/3/6
f 380/3/6 378/3/6 385/3/6
f 385/3/6 378/3/6 386/3/6
f 382/3/6 376/3/6 387/3/6
f 387/3/6 376/3/6 388/3/6
f 383/3/6 384/3/6 389/3/6
f 389/3/6 384/3/6 390/3/6
f 341/3/6 381/3/6 391/3/6
f 381/2/6 382/2/6 391/2/6
f 382/3/6 387/3/6 392/3/6
f 391/2/6 382/2/6 392/2/6
f 387/1/6 388/1/6 393/1/6
f 392/3/6 387/3/6 393/3/6
f 388/3/6 376/3/6 394/3/6
f 393/1/6 388/1/6 394/1/6
f 392/3/6 393/3/6 395/3/6
f 391/3/6 392/3/6 395/3/6
f 393/3/6 394/3/6 395/3/6
f 394/3/6 376/3/6 396/3/6
f 395/3/6 394/3/6 396/3/6
f 391/3/6 395/3/6 397/3/6
f 395/2/6 396/2/6 397/2/6
f 396/3/6 376/3/6 398/3/6
f 397/2/6 396/2/6 398/2/6
f 397/3/6 398/3/6 399/3/6
f 398/3/6 376/3/6 399/3/6
f 399/3/6 376/3/6 400/3/6
f 391/3/6 397/3/6 401/3/6
f 397/3/6 399/3/6 401/3/6
f 401/3/6 399/3/6 402/3/6
f 341/3/6 391/3/6 403/3/6
f 391/3/6 401/3/6 403/3/6
f 403/3/6 401/3/6 404/3/6
f 403/1/6 404/1/6 405/1/6
f 404/3/6 401/3/6 406/3/6
f 405/1/6 404/1/6 406/1/6
f 401/1/6 402/1/6 407/1/6
f 406/3/6 401/3/6 407/3/6
f 402/3/6 399/3/6 408/3/6
f 407/1/6 402/1/6 408/1/6
f 399/2/6 400/2/6 409/2/6
f 408/3/6 399/3/6 409/3/6
f 400/3/6 376/3/6 410/3/6
f 409/2/6 400/2/6 410/2/6
f 408/3/6 409/3/6 411/3/6
f 406/3/6 407/3/6 411/3/6
f 409/3/6 410/3/6 411/3/6
f 407/3/6 408/3/6 411/3/6
f 405/3/6 406/3/6 411/3/6
f 410/3/6 376/3/6 412/3/6
f 411/3/6 410/3/6 412/3/6
f 415/3/6 416/3/6 417/3/6
f 417/3/6 416/3/6 418/3/6
f 415/3/6 417/3/6 419/3/6
f 417/1/6 418/1/6 419/1/6
f 419/1/6 418/1/6 420/1/6
f 413/3/6 414/3/6 421/3/6
f 421/3/6 414/3/6 422/3/6
f 421/1/6 422/1/6 423/1/6
f 422/3/6 414/3/6 424/3/6
f 423/1/6 422/1/6 424/1/6
f 419/3/6 420/3/6 425/3/6
f 419/3/6 425/3/6 426/3/6
f 423/3/6 424/3/6 427/3/6
f 424/3/6 414/3/6 428/3/6
f 427/3/6 424/3/6 428/3/6
f 427/1/6 428/1/6 429/1/6
f 428/3/6 414/3/6 430/3/6
f 429/1/6 428/1/6 430/1/6
f 429/3/6 430/3/6 431/3/6
f 415/3/6 419/3/6 432/3/6
f 419/3/6 426/3/6 432/3/6
f 432/3/6 426/3/6 433/3/6
f 432/1/6 433/1/6 434/1/6
f 433/3/6 426/3/6 435/3/6
f 434/1/6 433/1/6 435/1/6
f 436/3/6 437/3/6 438/3/6
f 438/3/6 437/3/6 439/3/6
f 436/3/6 438/3/6 440/3/6
f 440/3/6 438/3/6 441/3/6
f 435/3/6 426/3/6 443/3/6
f 434/3/6 435/3/6 443/3/6
f 443/3/6 426/3/6 444/3/6
f 441/3/6 442/3/6 445/3/6
f 445/3/6 442/3/6 446/3/6
f 443/1/6 444/1/6 447/1/6
f 434/3/6 443/3/6 447/3/6
f 447/1/6 444/1/6 448/1/6
f 431/3/6 430/3/6 449/3/6
f 430/3/6 414/3/6 450/3/6
f 449/3/6 430/3/6 450/3/6
f 434/3/6 447/3/6 451/3/6
f 447/3/6 448/3/6 451/3/6
f 451/3/6 448/3/6 452/3/6
f 453/3/6 454/3/6 457/3/6
f 457/3/6 454/3/6 458/3/6
f 457/1/6 458/1/6 459/1/6
f 458/3/6 454/3/6 460/3/6
f 459/1/6 458/1/6 460/1/6
f 455/3/6 456/3/6 461/3/6
f 461/3/6 456/3/6 462/3/6
f 461/1/6 462/1/6 463/1/6
f 463/1/6 462/1/6 464/1/6
f 463/3/6 464/3/6 465/3/6
f 465/3/6 464/3/6 466/3/6
f 465/1/6 466/1/6 467/1/6
f 467/1/6 466/1/6 468/1/6
f 460/3/6 454/3/6 469/3/6
f 459/3/6 460/3/6 469/3/6
f 469/3/6 454/3/6 470/3/6
f 459/3/6 469/3/6 471/3/6
f 469/1/6 470/1/6 471/1/6
f 471/1/6 470/1/6 472/1/6
f 459/3/6 471/3/6 473/3/6
f 471/3/6 472/3/6 473/3/6
f 473/3/6 472/3/6 474/3/6
f 474/3/6 472/3/6 475/3/6
f 475/3/6 472/3/6 476/3/6
f 467/3/6 468/3/6 477/3/6
f 477/3/6 468/3/6 478/3/6
f 479/3/6 480/3/6 483/3/6
f 483/3/6 480/3/6 484/3/6
f 479/3/6 483/3/6 485/3/6
f 483/1/6 484/1/6 485/1/6
f 484/3/6 480/3/6 486/3/6
f 485/1/6 484/1/6 486/1/6
f 481/3/6 482/3/6 487/3/6
f 487/3/6 482/3/6 488/3/6
f 487/1/6 488/1/6 489/1/6
f 488/3/6 482/3/6 490/3/6
f 489/1/6 488/1/6 490/1/6
f 479/3/6 485/3/6 491/3/6
f 485/3/6 486/3/6 491/3/6
f 491/3/6 486/3/6 492/3/6
f 490/3/6 482/3/6 493/3/6
f 489/3/6 490/3/6 493/3/6
f 493/3/6 482/3/6 494/3/6
f 491/1/6 492/1/6 495/1/6
f 479/3/6 491/3/6 495/3/6
f 492/3/6 486/3/6 496/3/6
f 495/1/6 492/1/6 496/1/6
f 493/1/6 494/1/6 497/1/6
f 489/3/6 493/3/6 497/3/6
f 494/3/6 482/3/6 498/3/6
f 497/1/6 494/1/6 498/1/6
f 496/3/6 486/3/6 499/3/6
f 495/3/6 496/3/6 499/3/6
f 486/3/6 480/3/6 500/3/6
f 499/3/6 486/3/6 500/3/6
f 495/3/6 499/3/6 501/3/6
f 499/1/6 500/1/6 501/1/6
f 500/3/6 480/3/6 502/3/6
f 501/1/6 500/1/6 502/1/6
f 495/3/6 501/3/6 503/3/6
f 501/3/6 502/3/6 503/3/6
f 502/3/6 480/3/6 504/3/6
f 503/3/6 502/3/6 504/3/6
f 495/3/6 503/3/6 505/3/6
f 503/1/6 504/1/6 505/1/6
f 504/3/6 480/3/6 506/3/6
f 505/1/6 504/1/6 506/1/6
f 498/3/6 482/3/6 507/3/6
f 497/3/6 498/3/6 507/3/6
f 507/3/6 482/3/6 508/3/6
f 506/3/6 480/3/6 509/3/6
f 505/3/6 506/3/6 509/3/6
f 509/3/6 480/3/6 510/3/6
f 505/3/6 509/3/6 511/3/6
f 509/1/6 510/1/6 511/1/6
f 511/1/6 510/1/6 512/1/6
f 507/1/6 508/1/6 513/1/6
f 497/3/6 507/3/6 513/3/6
f 508/3/6 482/3/6 514/3/6
f 513/1/6 508/1/6 514/1/6
f 497/3/6 513/3/6 515/3/6
f 513/3/6 514/3/6 515/3/6
f 514/3/6 482/3/6 516/3/6
f 515/3/6 514/3/6 516/3/6
f 497/3/6 515/3/6 517/3/6
f 515/1/6 516/1/6 517/1/6
f 516/3/6 482/3/6 518/3/6
f 517/1/6 516/1/6 518/1/6
f 495/3/6 505/3/6 519/3/6
f 479/3/6 495/3/6 519/3/6
f 511/3/6 512/3/6 519/3/6
f 505/3/6 511/3/6 519/3/6
f 519/3/6 512/3/6 520/3/6
f 517/3/6 518/3/6 521/3/6
f 489/3/6 497/3/6 521/3/6
f 497/3/6 517/3/6 521/3/6
f 518/3/6 482/3/6 522/3/6
f 521/3/6 518/3/6 522/3/6
